<svg id="svg" version="1.1" xmlns="http://www.w3.org/2000/svg" xmlns:xlink="http://www.w3.org/1999/xlink" width="400" height="400" viewBox="0, 0, 400,400"><g id="svgg"><path id="path0" d="M161.644 141.804 C 160.678 142.572,159.733 143.200,159.544 143.200 C 159.355 143.200,159.200 143.467,159.200 143.792 C 159.200 144.118,158.750 144.498,158.200 144.636 C 157.650 144.774,157.200 145.141,157.200 145.452 C 157.200 145.763,156.753 146.221,156.206 146.470 C 155.659 146.719,154.935 147.346,154.596 147.862 C 154.258 148.378,153.716 148.800,153.391 148.800 C 153.066 148.800,152.800 149.064,152.800 149.386 C 152.800 149.708,152.461 150.153,152.048 150.374 C 151.634 150.596,149.941 152.087,148.285 153.689 C 139.834 161.862,131.902 169.343,129.400 171.500 C 127.030 173.543,103.955 196.771,76.450 224.800 C 64.205 237.279,42.000 259.860,36.700 265.224 C 33.895 268.062,31.600 270.559,31.600 270.773 C 31.600 270.986,31.290 271.334,30.912 271.545 C 30.343 271.864,30.465 271.969,31.612 272.150 C 33.083 272.382,140.414 272.717,141.830 272.494 C 142.811 272.339,144.658 270.493,166.219 248.132 C 176.987 236.963,179.691 234.047,180.635 232.585 C 181.056 231.933,182.210 230.571,183.200 229.557 C 184.190 228.543,186.350 226.229,188.000 224.414 C 189.650 222.599,191.450 220.622,192.000 220.019 C 192.550 219.417,194.980 216.702,197.400 213.986 C 199.820 211.270,202.205 208.656,202.700 208.178 C 203.195 207.700,203.600 207.108,203.600 206.863 C 203.600 206.619,204.031 206.136,204.558 205.791 C 205.085 205.445,205.612 204.798,205.729 204.352 C 205.845 203.906,206.314 203.443,206.770 203.324 C 207.227 203.204,207.600 202.793,207.600 202.409 C 207.600 202.026,208.050 201.374,208.600 200.961 C 209.150 200.548,209.600 199.983,209.600 199.705 C 209.600 199.427,209.780 199.200,210.000 199.200 C 210.220 199.200,210.400 198.834,210.400 198.387 C 210.400 197.941,210.677 197.468,211.016 197.338 C 211.490 197.157,211.096 196.514,209.316 194.563 C 205.944 190.867,204.179 188.727,203.615 187.648 C 203.341 187.125,202.246 185.775,201.183 184.648 C 200.119 183.522,198.763 181.880,198.170 181.000 C 197.086 179.391,194.916 176.839,190.748 172.269 C 189.509 170.911,188.032 168.878,187.467 167.751 C 186.829 166.481,185.922 165.397,185.082 164.901 C 184.232 164.400,183.190 163.147,182.295 161.550 C 181.333 159.836,180.414 158.760,179.491 158.269 C 178.736 157.867,177.820 156.967,177.455 156.269 C 176.753 154.926,174.617 152.070,173.066 150.400 C 172.555 149.850,171.832 148.905,171.459 148.300 C 171.087 147.695,170.516 147.200,170.191 147.200 C 169.866 147.200,169.600 146.936,169.600 146.614 C 169.600 145.830,167.348 143.301,166.375 142.992 C 165.840 142.822,165.600 142.382,165.600 141.573 C 165.600 139.885,163.935 139.982,161.644 141.804 " stroke="none" fill="#5e9bc7" fill-rule="evenodd"></path><path id="path1" d="M265.400 205.646 C 262.100 206.063,257.960 206.833,256.200 207.357 C 254.440 207.881,252.275 208.505,251.389 208.744 C 240.698 211.627,222.686 226.153,219.241 234.671 C 218.958 235.370,218.473 236.040,218.163 236.159 C 217.854 236.278,217.600 236.620,217.600 236.920 C 217.600 237.219,217.136 238.350,216.568 239.432 C 216.000 240.514,215.292 242.210,214.994 243.200 C 214.696 244.190,214.170 245.767,213.826 246.704 C 212.693 249.793,212.796 255.253,214.000 255.873 C 215.060 256.419,336.862 256.688,339.550 256.150 C 340.849 255.890,341.412 253.572,340.418 252.578 C 340.208 252.368,339.745 250.667,339.389 248.798 C 339.032 246.929,338.394 244.745,337.971 243.946 C 337.547 243.146,337.200 242.285,337.200 242.034 C 337.200 241.783,336.560 240.277,335.778 238.689 C 330.119 227.191,320.600 217.843,308.628 212.027 C 302.267 208.936,301.005 208.400,300.089 208.400 C 299.616 208.400,298.278 208.022,297.115 207.560 C 291.339 205.266,275.812 204.329,265.400 205.646 " stroke="none" fill="#a4a4a4" fill-rule="evenodd"></path><path id="path2" d="M195.889 103.926 C 194.300 105.458,191.254 108.397,189.121 110.456 C 186.987 112.515,176.121 123.200,164.973 134.200 C 153.825 145.200,141.055 157.800,136.595 162.200 C 132.136 166.600,127.702 170.946,126.743 171.859 C 124.989 173.528,82.757 216.177,66.867 232.327 C 62.173 237.097,51.598 247.776,43.367 256.057 C 28.021 271.495,27.418 272.233,29.300 273.266 C 30.278 273.802,138.276 274.351,141.684 273.837 C 143.681 273.535,143.989 273.265,152.600 264.260 C 155.900 260.809,160.940 255.584,163.800 252.648 C 169.295 247.008,178.650 237.153,183.591 231.800 C 185.216 230.040,189.167 225.822,192.372 222.427 C 195.578 219.032,199.550 214.822,201.200 213.073 C 202.850 211.323,205.190 208.864,206.400 207.608 C 209.433 204.460,217.908 195.427,224.796 188.000 C 227.959 184.590,232.179 180.081,234.173 177.981 C 236.168 175.881,239.600 172.206,241.800 169.815 C 244.000 167.424,247.060 164.130,248.600 162.497 C 251.385 159.542,251.918 158.764,251.972 157.580 C 251.997 157.034,246.009 150.223,238.627 142.400 C 236.017 139.634,221.246 123.704,217.835 119.977 C 216.716 118.754,214.180 115.982,212.200 113.816 C 210.220 111.651,208.060 109.306,207.400 108.606 C 199.114 99.811,199.845 100.109,195.889 103.926 M165.600 141.573 C 165.600 142.382,165.840 142.822,166.375 142.992 C 167.348 143.301,169.600 145.830,169.600 146.614 C 169.600 146.936,169.866 147.200,170.191 147.200 C 170.516 147.200,171.087 147.695,171.459 148.300 C 171.832 148.905,172.555 149.850,173.066 150.400 C 174.617 152.070,176.753 154.926,177.455 156.269 C 177.820 156.967,178.736 157.867,179.491 158.269 C 180.414 158.760,181.333 159.836,182.295 161.550 C 183.190 163.147,184.232 164.400,185.082 164.901 C 185.922 165.397,186.829 166.481,187.467 167.751 C 188.032 168.878,189.509 170.911,190.748 172.269 C 194.916 176.839,197.086 179.391,198.170 181.000 C 198.763 181.880,200.119 183.522,201.183 184.648 C 202.246 185.775,203.341 187.125,203.615 187.648 C 204.179 188.727,205.944 190.867,209.316 194.563 C 211.096 196.514,211.490 197.157,211.016 197.338 C 210.677 197.468,210.400 197.941,210.400 198.387 C 210.400 198.834,210.220 199.200,210.000 199.200 C 209.780 199.200,209.600 199.427,209.600 199.705 C 209.600 199.983,209.150 200.548,208.600 200.961 C 208.050 201.374,207.600 202.026,207.600 202.409 C 207.600 202.793,207.227 203.204,206.770 203.324 C 206.314 203.443,205.845 203.906,205.729 204.352 C 205.612 204.798,205.085 205.445,204.558 205.791 C 204.031 206.136,203.600 206.619,203.600 206.863 C 203.600 207.108,203.195 207.700,202.700 208.178 C 202.205 208.656,199.820 211.270,197.400 213.986 C 194.980 216.702,192.550 219.417,192.000 220.019 C 191.450 220.622,189.650 222.599,188.000 224.414 C 186.350 226.229,184.190 228.543,183.200 229.557 C 182.210 230.571,181.056 231.933,180.635 232.585 C 179.691 234.047,176.987 236.963,166.219 248.132 C 144.658 270.493,142.811 272.339,141.830 272.494 C 140.414 272.717,33.083 272.382,31.612 272.150 C 30.465 271.969,30.343 271.864,30.912 271.545 C 31.290 271.334,31.600 270.986,31.600 270.773 C 31.600 270.559,33.895 268.062,36.700 265.224 C 42.000 259.860,64.205 237.279,76.450 224.800 C 103.955 196.771,127.030 173.543,129.400 171.500 C 131.902 169.343,139.834 161.862,148.285 153.689 C 149.941 152.087,151.634 150.596,152.048 150.374 C 152.461 150.153,152.800 149.708,152.800 149.386 C 152.800 149.064,153.066 148.800,153.391 148.800 C 153.716 148.800,154.258 148.378,154.596 147.862 C 154.935 147.346,155.659 146.719,156.206 146.470 C 156.753 146.221,157.200 145.763,157.200 145.452 C 157.200 145.141,157.650 144.774,158.200 144.636 C 158.750 144.498,159.200 144.118,159.200 143.792 C 159.200 143.467,159.355 143.200,159.544 143.200 C 159.733 143.200,160.678 142.572,161.644 141.804 C 163.935 139.982,165.600 139.885,165.600 141.573 M264.400 204.647 C 262.970 204.968,260.340 205.476,258.556 205.776 C 256.773 206.076,254.793 206.585,254.156 206.907 C 253.520 207.229,252.010 207.720,250.800 207.997 C 249.590 208.275,248.330 208.726,248.000 209.000 C 247.670 209.275,246.680 209.724,245.800 210.000 C 244.920 210.276,243.930 210.726,243.600 211.001 C 243.270 211.276,242.190 211.884,241.200 212.352 C 238.560 213.599,236.825 214.708,232.190 218.112 C 229.281 220.248,223.377 226.165,222.487 227.837 C 222.205 228.366,221.834 228.800,221.663 228.800 C 221.258 228.800,218.000 233.719,218.000 234.331 C 218.000 234.589,217.854 234.800,217.675 234.800 C 217.404 234.800,215.654 238.070,213.394 242.800 C 210.010 249.882,206.877 269.883,208.790 272.188 C 209.482 273.022,342.833 273.133,343.506 272.300 C 345.845 269.404,343.019 250.525,339.000 242.200 C 338.682 241.540,338.049 240.190,337.593 239.200 C 335.798 235.297,334.810 233.700,331.159 228.805 C 328.772 225.605,322.114 219.017,320.543 218.301 C 320.024 218.065,319.600 217.730,319.600 217.557 C 319.600 217.384,318.572 216.558,317.315 215.721 C 314.263 213.690,313.992 213.537,309.600 211.391 C 307.510 210.369,305.327 209.282,304.749 208.973 C 304.171 208.665,302.733 208.206,301.553 207.953 C 300.373 207.699,299.015 207.235,298.536 206.921 C 298.056 206.607,296.164 206.099,294.332 205.793 C 292.499 205.486,289.740 204.961,288.200 204.625 C 284.369 203.789,268.156 203.804,264.400 204.647 M287.600 205.767 C 292.154 206.354,295.813 207.043,297.115 207.560 C 298.278 208.022,299.616 208.400,300.089 208.400 C 301.005 208.400,302.267 208.936,308.628 212.027 C 320.600 217.843,330.119 227.191,335.778 238.689 C 336.560 240.277,337.200 241.783,337.200 242.034 C 337.200 242.285,337.547 243.146,337.971 243.946 C 338.394 244.745,339.032 246.929,339.389 248.798 C 339.745 250.667,340.208 252.368,340.418 252.578 C 341.412 253.572,340.849 255.890,339.550 256.150 C 336.862 256.688,215.060 256.419,214.000 255.873 C 212.796 255.253,212.693 249.793,213.826 246.704 C 214.170 245.767,214.696 244.190,214.994 243.200 C 215.292 242.210,216.000 240.514,216.568 239.432 C 217.136 238.350,217.600 237.219,217.600 236.920 C 217.600 236.620,217.854 236.278,218.163 236.159 C 218.473 236.040,218.958 235.370,219.241 234.671 C 222.686 226.153,240.698 211.627,251.389 208.744 C 252.275 208.505,254.440 207.881,256.200 207.357 C 264.368 204.925,276.346 204.318,287.600 205.767 " stroke="none" fill="#afc3d4" fill-rule="evenodd"></path></g></svg>